Coordinates
version=1
nRows=20
nColumns=38
inDegrees=no

Units are S.I. units (second, meters, Newtons, ...)
If the header above contains a line with 'inDegrees', this indicates whether rotational values are in degrees (yes) or radians (no).

endheader
time	pelvis_tilt	pelvis_list	pelvis_rotation	pelvis_tx	pelvis_ty	pelvis_tz	hip_flexion_r	hip_adduction_r	hip_rotation_r	knee_angle_r	ankle_angle_r	subtalar_angle_r	mtp_angle_r	hip_flexion_l	hip_adduction_l	hip_rotation_l	knee_angle_l	ankle_angle_l	subtalar_angle_l	mtp_angle_l	lumbar_extension	lumbar_bending	lumbar_rotation	arm_flex_r	arm_add_r	arm_rot_r	elbow_flex_r	pro_sup_r	wrist_flex_r	wrist_dev_r	arm_flex_l	arm_add_l	arm_rot_l	elbow_flex_l	pro_sup_l	wrist_flex_l	wrist_dev_l
0	-2.83098	1.54675	-1.79267	0.66871	-0.432106	1.04489	0.063934	-0.0761233	-0.386515	0.439771	-0.157724	0	0	-0.0782792	-0.0820348	-0.213014	0.112663	-0.43318	0	0	-0.112079	0.048875	-0.0984524	-0.153556	-0.253136	0.0709475	0.61768	1.56293	0	0	0.0364831	-0.206571	0.459411	0.310717	1.5708	0	0
0.01	-2.78989	1.54668	-1.82918	0.668509	-0.433019	1.04468	0.0631287	-0.0734408	-0.366268	0.435973	-0.154618	0	0	-0.0426018	-0.0996461	-0.276778	0.20276	-0.405708	0	0	-0.119285	0.0466864	-0.09055	-0.146764	-0.266417	0.11443	0.626586	1.54207	0	0	0.0278629	-0.224092	0.437361	0.372463	1.5708	0	0
0.02	-2.65847	1.54934	-1.95943	0.668521	-0.433938	1.04482	0.0689529	-0.07497	-0.363524	0.43664	-0.15506	0	0	-0.0358596	-0.0968114	-0.275684	0.205559	-0.404514	0	0	-0.119872	0.0444793	-0.0888498	-0.143562	-0.26865	0.118465	0.647236	1.54099	0	0	0.0288308	-0.234301	0.43022	0.4041	1.5708	0	0
0.03	-2.34627	1.55518	-2.2718	0.668459	-0.434939	1.04477	0.0810823	-0.0782387	-0.372215	0.438803	-0.157525	0	0	-0.0243466	-0.0933833	-0.273896	0.208058	-0.404427	0	0	-0.116994	0.043502	-0.0872662	-0.141274	-0.272254	0.119181	0.677803	1.54396	0	0	0.0351982	-0.241641	0.425923	0.429591	1.5708	0	0
0.04	-1.78735	1.55815	-2.82946	0.668297	-0.435837	1.0447	0.0926372	-0.0804442	-0.371953	0.441184	-0.159577	0	0	-0.0128672	-0.089793	-0.270956	0.209469	-0.405333	0	0	-0.113594	0.0429253	-0.0873484	-0.138898	-0.274932	0.115947	0.713539	1.55386	0	0	0.0411871	-0.249905	0.420029	0.460989	1.5708	0	0
0.05	-1.40735	1.56362	3.07061	0.666458	-0.438467	1.04666	0.111714	-0.0613443	-0.227882	0.475007	-0.154544	0	0	-0.00592743	-0.0888533	-0.266687	0.205115	-0.412259	0	0	-0.105626	0.0516902	-0.110229	-0.101444	-0.287583	0.165923	0.720556	1.56816	0	0	0.0372413	-0.251463	0.394618	0.484708	1.5708	0	0
0.06	-0.583274	1.55719	2.24811	0.666243	-0.439293	1.04643	0.127423	-0.0631189	-0.223526	0.48364	-0.154716	0	0	0.00755593	-0.0861546	-0.264761	0.206297	-0.41513	0	0	-0.118092	0.0532364	-0.0770864	-0.124325	-0.288002	0.111442	0.791836	1.5708	0	0	0.0654721	-0.257374	0.406397	0.53112	1.5708	0	0
0.07	-0.379506	1.54998	2.04574	0.665908	-0.440241	1.04627	0.138995	-0.0642948	-0.220863	0.487219	-0.156048	0	0	0.018195	-0.0838928	-0.264586	0.206909	-0.417391	0	0	-0.119078	0.0542636	-0.0690816	-0.123679	-0.290976	0.0996774	0.84098	1.5708	0	0	0.0776089	-0.265568	0.40559	0.577481	1.5708	0	0
0.08	-0.275586	1.54269	1.94305	0.665506	-0.441137	1.04607	0.149457	-0.0649388	-0.217754	0.488676	-0.157575	0	0	0.0277634	-0.0816878	-0.264209	0.206336	-0.419616	0	0	-0.119186	0.055459	-0.0629092	-0.119254	-0.2953	0.0943311	0.888494	1.5708	0	0	0.0879911	-0.27331	0.399741	0.627125	1.5708	0	0
0.09	-0.223933	1.53916	1.8926	0.66495	-0.442155	1.04596	0.155407	-0.0647204	-0.214762	0.489387	-0.158766	0	0	0.0322179	-0.0801081	-0.262815	0.203896	-0.421292	0	0	-0.106955	0.0585738	-0.0888548	-0.0837211	-0.306254	0.144582	0.909032	1.5708	0	0	0.0745396	-0.2828	0.36418	0.67746	1.5708	0	0
0.1	-0.157318	1.53325	1.82668	0.664431	-0.442941	1.04578	0.163719	-0.0641637	-0.211274	0.490359	-0.159965	0	0	0.0384303	-0.0787959	-0.26062	0.20014	-0.423483	0	0	-0.102549	0.0610766	-0.0934371	-0.0635866	-0.315128	0.164981	0.946536	1.5708	0	0	0.076512	-0.290825	0.348528	0.730884	1.5708	0	0
0.11	-0.0980962	1.52789	1.76708	0.663929	-0.443658	1.04558	0.171374	-0.0630856	-0.2083	0.491245	-0.161342	0	0	0.0432691	-0.0782862	-0.259277	0.195371	-0.425846	0	0	-0.0989241	0.0643765	-0.0961608	-0.042173	-0.324291	0.184007	0.986287	1.5708	0	0	0.0799672	-0.298244	0.335403	0.785189	1.5708	0	0
0.12	-0.0529471	1.51778	1.72185	0.663461	-0.444011	1.04522	0.183078	-0.0625243	-0.205023	0.491033	-0.163275	0	0	0.0521719	-0.0766762	-0.254963	0.188637	-0.43002	0	0	-0.112045	0.0645408	-0.0552146	-0.0628688	-0.3302	0.131314	1.0679	1.5708	0	0	0.117801	-0.301682	0.364373	0.842164	1.5708	0	0
0.13	-0.0195589	1.51173	1.68824	0.662817	-0.444386	1.04492	0.189851	-0.0616369	-0.203303	0.490189	-0.164381	0	0	0.0564552	-0.0759214	-0.252052	0.182095	-0.432728	0	0	-0.108519	0.0664474	-0.0529394	-0.045923	-0.342352	0.144634	1.11543	1.5708	0	0	0.127423	-0.310353	0.365248	0.89687	1.5708	0	0
0.14	0.0196673	1.51238	1.64838	0.661988	-0.444852	1.04467	0.189202	-0.0600568	-0.203946	0.48909	-0.164402	0	0	0.0528964	-0.0769336	-0.250931	0.17564	-0.43362	0	0	-0.0891561	0.0732615	-0.0967141	0.0224611	-0.359412	0.239171	1.11935	1.5708	0	0	0.100497	-0.322772	0.320869	0.949697	1.5708	0	0
0.15	0.0407207	1.49933	1.62666	0.661485	-0.444465	1.04399	0.202279	-0.0595389	-0.201642	0.487365	-0.166008	0	0	0.0626777	-0.0757026	-0.244732	0.16709	-0.437072	0	0	-0.0965541	0.0708279	-0.0556196	0.00150995	-0.37143	0.1907	1.20288	1.5708	0	0	0.138612	-0.326614	0.35486	1.00493	1.5708	0	0
0.16	0.0712898	1.49432	1.59362	0.660843	-0.444403	1.04355	0.207092	-0.0575487	-0.199403	0.485904	-0.167179	0	0	0.0637878	-0.076323	-0.243088	0.158805	-0.438838	0	0	-0.0910104	0.0739121	-0.0563737	0.0288325	-0.384509	0.21302	1.24298	1.5708	0	0	0.145376	-0.335171	0.352142	1.05536	1.5708	0	0
0.17	0.0996972	1.48958	1.56233	0.660185	-0.444245	1.04311	0.211095	-0.0552477	-0.196876	0.483668	-0.168194	0	0	0.0647319	-0.0772379	-0.242438	0.151053	-0.440769	0	0	-0.0844668	0.0771282	-0.060091	0.0621957	-0.397483	0.242393	1.27604	1.5708	0	0	0.149286	-0.342335	0.343297	1.10347	1.5708	0	0
0.18	0.123907	1.48574	1.53513	0.659495	-0.444062	1.04277	0.213814	-0.05308	-0.194866	0.480915	-0.169105	0	0	0.0650799	-0.0781656	-0.242146	0.144211	-0.442692	0	0	-0.0790553	0.0801404	-0.0638506	0.0976572	-0.409083	0.27149	1.30514	1.5708	0	0	0.154301	-0.34838	0.334368	1.1485	1.5708	0	0
0.19	0.141883	1.48259	1.51407	0.658835	-0.443832	1.04254	0.215534	-0.0513247	-0.193239	0.47778	-0.170164	0	0	0.0649589	-0.0788707	-0.241614	0.138376	-0.444472	0	0	-0.0747633	0.0827134	-0.0672809	0.13394	-0.418501	0.298642	1.33136	1.5708	0	0	0.159284	-0.354277	0.325207	1.19262	1.5708	0	0
